<?xml version="1.0" encoding="utf-8"?>
<!DOCTYPE svg PUBLIC "-//W3C//DTD SVG 1.1//EN" "http://www.w3.org/Graphics/SVG/1.1/DTD/svg11.dtd">
<svg version="1.1" xmlns="http://www.w3.org/2000/svg" xmlns:xlink="http://www.w3.org/1999/xlink" x="0px" y="0px"
	 width="458px" height="325.5px" viewBox="0 0 458 325.5" enable-background="new 0 0 458 325.5" xml:space="preserve">
<rect fill="#5B5862" stroke="#413E4A" stroke-miterlimit="10" width="458" height="296"/>
<rect x="23" y="64" fill="#5B5862" stroke="#413E4A" stroke-miterlimit="10" width="411" height="218"/>
<rect x="39" y="72" fill="#6A6770" stroke="#413E4A" stroke-miterlimit="10" width="379" height="202"/>
<rect x="91" y="79" fill="#6A6770" stroke="#413E4A" stroke-miterlimit="10" width="274" height="146"/>
<path fill-rule="evenodd" clip-rule="evenodd" fill="#5B5862" stroke="#413E4A" stroke-miterlimit="10" d="M353,203.481
	c0,5.809-4.709,10.519-10.519,10.519H111.519c-5.809,0-10.519-4.709-10.519-10.519V99.519C101,93.709,105.709,89,111.519,89h230.963
	C348.291,89,353,93.709,353,99.519V203.481z"/>
<line fill="none" stroke="#413E4A" stroke-miterlimit="10" x1="39.021" y1="72.486" x2="90.736" y2="79.499"/>
<line fill="none" stroke="#413E4A" stroke-miterlimit="10" x1="365.089" y1="79.499" x2="417.68" y2="72.486"/>
<line fill="none" stroke="#413E4A" stroke-miterlimit="10" x1="365.089" y1="225.001" x2="417.68" y2="274.087"/>
<line fill="none" stroke="#413E4A" stroke-miterlimit="10" x1="90.736" y1="225.001" x2="39.021" y2="274.087"/>
<g>
	<path fill="#6A6770" stroke="#413E4A" stroke-miterlimit="10" d="M50.006,190.641c0,0,8.833-9.064,8.088-12.198
		c-0.649-2.732-9.869-1.212-9.869-1.212L77.15,164.74c0,0,6.132-0.166,6.561,1.803c0.718,3.294-6.999,10.688-6.999,10.688
		L50.006,190.641z"/>
	<line fill="none" stroke="#413E4A" stroke-miterlimit="10" x1="58.094" y1="178.443" x2="83.711" y2="166.543"/>
</g>
<g>
	<path fill="#6A6770" stroke="#413E4A" stroke-miterlimit="10" d="M403.662,190.641c0,0-8.834-9.064-8.089-12.198
		c0.649-2.732,9.869-1.212,9.869-1.212l-28.925-12.491c0,0-6.133-0.166-6.561,1.803c-0.719,3.294,6.999,10.688,6.999,10.688
		L403.662,190.641z"/>
	<line fill="none" stroke="#413E4A" stroke-miterlimit="10" x1="395.573" y1="178.443" x2="369.957" y2="166.543"/>
</g>
<g>
	<path fill="#6A6770" stroke="#413E4A" stroke-miterlimit="10" d="M47.836,148.046c0,0,9.662-8.174,9.221-11.365
		c-0.383-2.782-9.707-2.154-9.707-2.154l29.991-9.656c0,0,6.12,0.423,6.357,2.424c0.399,3.348-7.993,9.966-7.993,9.966
		L47.836,148.046z"/>
	<line fill="none" stroke="#413E4A" stroke-miterlimit="10" x1="57.058" y1="136.681" x2="83.699" y2="127.296"/>
</g>
<g>
	<path fill="#6A6770" stroke="#413E4A" stroke-miterlimit="10" d="M54.073,239.84c0,0,7.411-10.26,6.216-13.25
		c-1.041-2.608-9.939,0.245-9.939,0.245l26.786-16.589c0,0,6.042-1.062,6.754,0.824c1.193,3.153-5.358,11.597-5.358,11.597
		L54.073,239.84z"/>
	<line fill="none" stroke="#413E4A" stroke-miterlimit="10" x1="60.289" y1="226.591" x2="83.889" y2="211.07"/>
</g>
<g>
	<path fill="#6A6770" stroke="#413E4A" stroke-miterlimit="10" d="M405.227,148.046c0,0-9.662-8.174-9.222-11.365
		c0.383-2.782,9.707-2.154,9.707-2.154l-29.991-9.656c0,0-6.119,0.423-6.357,2.424c-0.398,3.348,7.992,9.966,7.992,9.966
		L405.227,148.046z"/>
	<line fill="none" stroke="#413E4A" stroke-miterlimit="10" x1="396.005" y1="136.681" x2="369.363" y2="127.296"/>
</g>
<g>
	<path fill="#6A6770" stroke="#413E4A" stroke-miterlimit="10" d="M400.311,239.84c0,0-7.412-10.26-6.217-13.25
		c1.041-2.608,9.939,0.245,9.939,0.245l-26.785-16.589c0,0-6.041-1.062-6.754,0.824c-1.193,3.153,5.358,11.597,5.358,11.597
		L400.311,239.84z"/>
	<line fill="none" stroke="#413E4A" stroke-miterlimit="10" x1="394.094" y1="226.591" x2="370.494" y2="211.07"/>
</g>
<g>
	<path fill-rule="evenodd" clip-rule="evenodd" fill="none" stroke="#BDBDBD" stroke-width="3" stroke-miterlimit="10" d="
		M235.016,197.554l-157.641-0.052c-3.461,0-9-0.627-11.384-2.502c-3.781-2.974-3.436-9.72-6.116-12.125
		c-3.219-2.888-12.887-2.419-13.396-4.432c-0.371-1.476,4.448-3.568,4.448-3.568l31.286-12.597c0,0,4.461-2.14,7.787-0.378
		c3.081,1.632,1.875,7.475,4.803,10.351C98.095,175.484,106.25,175,106.25,175h128.625l112.375-0.25c0,0,9.814,0.744,12.5-1.688
		c3.135-2.843,2.056-7.594,6.133-9.616c2.495-1.237,5.117-0.556,5.117-0.556l29.125,13.367c0,0,9.002,3.604,9.75,4.621
		c0.998,1.361-9.929-0.414-15.27,3.758c-2.777,2.604-2.203,8.756-5.862,11.357c-2.616,1.86-9.775,1.803-9.775,1.803L235.016,197.554
		z"/>
	<line fill="none" stroke="#BDBDBD" stroke-width="3" stroke-miterlimit="10" x1="95.76" y1="173" x2="63.814" y2="192.182"/>
	<line fill="none" stroke="#BDBDBD" stroke-width="3" stroke-miterlimit="10" x1="106.25" y1="175" x2="80.397" y2="197.503"/>
	<line fill="none" stroke="#BDBDBD" stroke-width="3" stroke-miterlimit="10" x1="117.224" y1="174.991" x2="96.974" y2="197.789"/>
	<line fill="none" stroke="#BDBDBD" stroke-width="3" stroke-miterlimit="10" x1="128.72" y1="175.039" x2="111.22" y2="197.837"/>
	
		<line fill="none" stroke="#BDBDBD" stroke-width="3" stroke-miterlimit="10" x1="141.545" y1="174.922" x2="127.045" y2="197.425"/>
	<line fill="none" stroke="#BDBDBD" stroke-width="3" stroke-miterlimit="10" x1="152.996" y1="175" x2="141.996" y2="197.503"/>
	
		<line fill="none" stroke="#BDBDBD" stroke-width="3" stroke-miterlimit="10" x1="164.413" y1="174.563" x2="157.117" y2="197.066"/>
	<line fill="none" stroke="#BDBDBD" stroke-width="3" stroke-miterlimit="10" x1="175.968" y1="175.443" x2="171.54" y2="197.491"/>
	<line fill="none" stroke="#BDBDBD" stroke-width="3" stroke-miterlimit="10" x1="187.75" y1="175.5" x2="186" y2="197.5"/>
	<line fill="none" stroke="#BDBDBD" stroke-width="3" stroke-miterlimit="10" x1="200" y1="175.5" x2="200" y2="197.5"/>
	<line fill="none" stroke="#BDBDBD" stroke-width="3" stroke-miterlimit="10" x1="212.227" y1="175.5" x2="213.203" y2="197.762"/>
	<line fill="none" stroke="#BDBDBD" stroke-width="3" stroke-miterlimit="10" x1="223.59" y1="174.854" x2="225.972" y2="197.491"/>
	<line fill="none" stroke="#BDBDBD" stroke-width="3" stroke-miterlimit="10" x1="234.875" y1="175" x2="238.006" y2="197.124"/>
	
		<line fill="none" stroke="#BDBDBD" stroke-width="3" stroke-miterlimit="10" x1="246.476" y1="175.526" x2="250.476" y2="198.324"/>
	
		<line fill="none" stroke="#BDBDBD" stroke-width="3" stroke-miterlimit="10" x1="257.555" y1="174.716" x2="262.733" y2="197.076"/>
	<line fill="none" stroke="#BDBDBD" stroke-width="3" stroke-miterlimit="10" x1="269.517" y1="175" x2="276.75" y2="197.762"/>
	<line fill="none" stroke="#BDBDBD" stroke-width="3" stroke-miterlimit="10" x1="280.75" y1="174.854" x2="290.375" y2="197.634"/>
	<line fill="none" stroke="#BDBDBD" stroke-width="3" stroke-miterlimit="10" x1="293" y1="174.871" x2="303.375" y2="197.124"/>
	
		<line fill="none" stroke="#BDBDBD" stroke-width="3" stroke-miterlimit="10" x1="305.305" y1="174.287" x2="317.238" y2="197.006"/>
	<line fill="none" stroke="#BDBDBD" stroke-width="3" stroke-miterlimit="10" x1="318.997" y1="175" x2="331.241" y2="197.287"/>
	<line fill="none" stroke="#BDBDBD" stroke-width="3" stroke-miterlimit="10" x1="361" y1="172.493" x2="391.385" y2="192.182"/>
	<line fill="none" stroke="#BDBDBD" stroke-width="3" stroke-miterlimit="10" x1="331.241" y1="175" x2="346.5" y2="197.743"/>
	<line fill="none" stroke="#BDBDBD" stroke-width="3" stroke-miterlimit="10" x1="344.241" y1="175" x2="360.375" y2="197.798"/>
	<line fill="none" stroke="#BDBDBD" stroke-width="3" stroke-miterlimit="10" x1="354.25" y1="175" x2="374.75" y2="197.634"/>
</g>
<g opacity="0.95">
	<path fill="#FFE0B2" d="M252.191,130.8c2.559,5.435,5.6,10.701,7.569,16.341c3.492,10.004-1.304,18.737-11.651,20.876
		c-14.552,3.004-29.367,2.838-43.905,0.302c-13.549-2.365-17.349-17.186-8.007-28.794c1.922-2.389,5.404-3.942,4.316-8.025
		c-0.077-0.286,0.991-1.198,1.609-1.299c8.21-1.339,16.42-3.429,24.66-3.568c5.792-0.098,11.628,2.501,17.448,3.87
		c2.241,0.529,4.498,0.987,6.747,1.478C251.383,131.585,251.787,131.193,252.191,130.8z M250.593,161.241
		c4.572-2.806,5.1-6.968,4.623-11.452c-0.084-0.768-0.89-2.063-1.412-2.09c-6.978-0.355-9.772-6.625-15.077-9.71
		c1.213-1.297,1.979-2.113,2.82-3.012c-8.315-3.936-16.509-4.658-23.684-2.453c-1.859,6.973-8.671,7.448-12.772,11.425
		c-1.104-1.37-1.93-2.394-2.753-3.415c-6.122,5.212-7.531,11.934-4.454,16.511c6.146-0.896,10.492,2.199,15.271,3.782
		c-0.466,1.435-0.777,2.39-1.256,3.864c6.772,0,13.133,0.133,19.478-0.109c1.324-0.051,3.541-1.322,3.729-2.333
		c0.881-4.712,4.963-3.888,7.853-5.226C247.368,154.981,248.93,158.042,250.593,161.241z"/>
	<path fill="#FFE0B2" d="M230.635,184.288c0.003,2.019-0.137,4.052,0.032,6.057c0.295,3.488-0.411,5.521-4.675,5.433
		c-3.907-0.083-5.242-1.501-5.042-5.282c0.23-4.343,0.22-8.712,0.014-13.054c-0.197-4.176,2.361-4.272,5.413-4.415
		c3.212-0.151,4.586,0.966,4.296,4.268C230.47,179.608,230.635,181.955,230.635,184.288z"/>
	<path fill="#FFE0B2" d="M243.07,173.457c-0.427,6.162-0.513,12.375-1.401,18.469c-0.561,3.85-4.073,2.771-7.483,2.739
		c0-6.612-0.431-13.113,0.347-19.467c0.163-1.336,4.761-2.132,7.315-3.174C242.255,172.5,242.662,172.978,243.07,173.457z"/>
	<path fill="#FFE0B2" d="M217.807,184.307c0,2.318,0.226,4.67-0.09,6.946c-0.173,1.234-1.533,3.419-1.895,3.331
		c-1.871-0.47-4.93-1.29-5.139-2.434c-1.021-5.587-1.417-11.308-1.597-16.996c-0.022-0.683,2.56-1.902,4.024-2.067
		c2.005-0.224,4.634-0.499,4.663,2.87c0.022,2.781,0.005,5.565,0.005,8.351C217.788,184.307,217.797,184.307,217.807,184.307z"/>
	<path fill="#FFE0B2" d="M196.501,169.587c2.451,0.805,4.943,1.513,7.33,2.479c0.688,0.279,1.149,1.26,1.569,1.999
		c0.206,0.362,0.067,0.911,0.103,1.374c0.414,5.354,0.834,10.711,1.353,17.357c-10.934-5.012-7.165-15.521-11.493-22.154
		C195.741,170.289,196.12,169.938,196.501,169.587z"/>
	<path fill="#FFE0B2" d="M244.89,192.01c0.694-6.343,0.643-12.344,2.289-17.834c0.689-2.291,4.99-3.498,8.013-5.43
		C256.571,178.026,251.367,190.272,244.89,192.01z"/>
	<path fill="#FFE0B2" d="M234.726,143.302c-0.165,1.509-0.186,2.292-0.343,3.046c-1.372,6.613-1.437,6.682-8.167,5.638
		c-2.858-0.444-5.688-1.066-9.181-1.73c1.539-3.872,2.864-7.214,4.357-10.976C226.011,140.672,230.243,141.948,234.726,143.302z"/>
</g>
<g opacity="0.95">
	<path fill="#FFE0B2" d="M181.149,154.878c1.633,3.469,3.574,6.831,4.832,10.431c2.229,6.386-0.832,11.96-7.438,13.326
		c-9.289,1.918-18.746,1.812-28.025,0.193c-8.649-1.51-11.075-10.971-5.111-18.381c1.227-1.524,3.449-2.516,2.755-5.123
		c-0.05-0.183,0.633-0.765,1.027-0.829c5.241-0.855,10.481-2.189,15.741-2.278c3.697-0.062,7.422,1.596,11.138,2.471
		c1.431,0.337,2.871,0.63,4.307,0.943C180.633,155.379,180.891,155.129,181.149,154.878z M180.129,174.309
		c2.918-1.792,3.255-4.448,2.95-7.31c-0.054-0.49-0.567-1.317-0.901-1.334c-4.454-0.227-6.238-4.229-9.624-6.198
		c0.774-0.828,1.263-1.349,1.801-1.923c-5.309-2.512-10.539-2.973-15.118-1.565c-1.188,4.451-5.535,4.754-8.154,7.292
		c-0.704-0.874-1.23-1.528-1.756-2.179c-3.908,3.327-4.809,7.618-2.844,10.539c3.923-0.571,6.697,1.404,9.748,2.414
		c-0.298,0.916-0.497,1.526-0.802,2.466c4.322,0,8.383,0.085,12.433-0.07c0.846-0.032,2.261-0.843,2.38-1.489
		c0.562-3.008,3.168-2.481,5.013-3.336C178.071,170.313,179.067,172.267,180.129,174.309z"/>
	<path fill="#FFE0B2" d="M167.389,189.021c0.001,1.289-0.088,2.586,0.021,3.866c0.188,2.227-0.263,3.524-2.984,3.468
		c-2.494-0.053-3.347-0.958-3.219-3.372c0.147-2.772,0.141-5.561,0.01-8.333c-0.126-2.666,1.507-2.727,3.455-2.818
		c2.05-0.096,2.927,0.617,2.741,2.725C167.284,186.034,167.389,187.531,167.389,189.021z"/>
	<path fill="#FFE0B2" d="M175.327,182.107c-0.272,3.934-0.327,7.899-0.895,11.79c-0.358,2.458-2.6,1.769-4.776,1.749
		c0-4.221-0.275-8.371,0.221-12.427c0.104-0.853,3.039-1.361,4.67-2.026C174.806,181.496,175.067,181.801,175.327,182.107z"/>
	<path fill="#FFE0B2" d="M159.2,189.032c0,1.48,0.145,2.982-0.058,4.434c-0.109,0.788-0.979,2.183-1.208,2.126
		c-1.195-0.3-3.146-0.823-3.28-1.554c-0.652-3.566-0.904-7.218-1.02-10.849c-0.015-0.437,1.634-1.214,2.569-1.32
		c1.279-0.143,2.958-0.318,2.976,1.832c0.015,1.775,0.003,3.553,0.003,5.33C159.188,189.032,159.194,189.032,159.2,189.032z"/>
	<path fill="#FFE0B2" d="M145.6,179.637c1.564,0.514,3.156,0.965,4.68,1.582c0.438,0.178,0.733,0.804,1.002,1.276
		c0.131,0.231,0.042,0.581,0.064,0.877c0.265,3.418,0.532,6.837,0.863,11.08c-6.979-3.199-4.573-9.908-7.336-14.142
		C145.116,180.085,145.358,179.86,145.6,179.637z"/>
	<path fill="#FFE0B2" d="M176.488,193.95c0.443-4.049,0.411-7.879,1.462-11.384c0.439-1.462,3.185-2.233,5.114-3.466
		C183.945,185.023,180.623,192.841,176.488,193.95z"/>
	<path fill="#FFE0B2" d="M170,162.858c-0.105,0.963-0.119,1.463-0.219,1.945c-0.876,4.221-0.917,4.266-5.214,3.599
		c-1.824-0.284-3.63-0.681-5.86-1.104c0.982-2.472,1.828-4.605,2.782-7.006C164.437,161.18,167.139,161.994,170,162.858z"/>
</g>
<g opacity="0.95">
	<path fill="#FFE0B2" d="M301.838,154.093c1.588,3.374,3.476,6.642,4.698,10.144c2.168,6.21-0.81,11.631-7.232,12.958
		c-9.032,1.865-18.229,1.762-27.253,0.188c-8.411-1.468-10.77-10.668-4.971-17.874c1.192-1.482,3.354-2.447,2.679-4.981
		c-0.048-0.178,0.615-0.744,1-0.807c5.096-0.832,10.192-2.128,15.307-2.215c3.596-0.061,7.218,1.552,10.831,2.402
		c1.391,0.328,2.792,0.613,4.188,0.917C301.336,154.58,301.587,154.336,301.838,154.093z M300.846,172.988
		c2.838-1.742,3.166-4.325,2.869-7.108c-0.052-0.477-0.552-1.281-0.877-1.297c-4.331-0.221-6.065-4.113-9.358-6.027
		c0.753-0.805,1.229-1.312,1.751-1.87c-5.162-2.443-10.248-2.891-14.701-1.522c-1.154,4.328-5.383,4.623-7.929,7.091
		c-0.686-0.85-1.197-1.486-1.709-2.12c-3.8,3.235-4.675,7.408-2.765,10.249c3.814-0.556,6.513,1.365,9.479,2.348
		c-0.29,0.891-0.483,1.483-0.78,2.398c4.204,0,8.152,0.083,12.091-0.068c0.822-0.032,2.198-0.82,2.314-1.448
		c0.547-2.925,3.08-2.413,4.875-3.244C298.844,169.103,299.812,171.002,300.846,172.988z"/>
	<path fill="#FFE0B2" d="M288.457,187.294c0.001,1.253-0.086,2.515,0.02,3.76c0.184,2.165-0.255,3.427-2.901,3.373
		c-2.426-0.051-3.255-0.932-3.13-3.278c0.143-2.696,0.136-5.408,0.009-8.103c-0.123-2.593,1.465-2.652,3.359-2.741
		c1.994-0.094,2.848,0.6,2.667,2.649C288.354,184.39,288.457,185.847,288.457,187.294z"/>
	<path fill="#FFE0B2" d="M296.176,180.571c-0.265,3.825-0.318,7.681-0.869,11.465c-0.349,2.39-2.528,1.72-4.646,1.7
		c0-4.104-0.268-8.14,0.215-12.084c0.102-0.829,2.955-1.323,4.541-1.97C295.67,179.978,295.923,180.274,296.176,180.571z"/>
	<path fill="#FFE0B2" d="M280.493,187.306c0,1.439,0.141,2.899-0.056,4.312c-0.106,0.766-0.951,2.123-1.176,2.067
		c-1.161-0.292-3.06-0.8-3.189-1.511c-0.634-3.468-0.879-7.02-0.991-10.55c-0.014-0.424,1.589-1.181,2.498-1.283
		c1.244-0.139,2.877-0.31,2.895,1.781c0.015,1.727,0.003,3.455,0.003,5.184C280.482,187.306,280.488,187.306,280.493,187.306z"/>
	<path fill="#FFE0B2" d="M267.269,178.169c1.521,0.5,3.068,0.939,4.55,1.539c0.427,0.173,0.714,0.782,0.975,1.241
		c0.128,0.224,0.041,0.564,0.063,0.853c0.257,3.324,0.518,6.648,0.839,10.774c-6.786-3.111-4.447-9.634-7.134-13.752
		C266.797,178.605,267.032,178.387,267.269,178.169z"/>
	<path fill="#FFE0B2" d="M297.306,192.088c0.431-3.938,0.398-7.663,1.421-11.071c0.427-1.422,3.097-2.171,4.974-3.371
		C304.557,183.408,301.326,191.009,297.306,192.088z"/>
	<path fill="#FFE0B2" d="M290.996,161.853c-0.103,0.937-0.115,1.422-0.213,1.891c-0.852,4.104-0.892,4.148-5.069,3.499
		c-1.774-0.275-3.53-0.662-5.699-1.074c0.955-2.404,1.778-4.478,2.705-6.813C285.587,160.221,288.214,161.013,290.996,161.853z"/>
</g>
<path fill="#6A6770" stroke="#413E4A" stroke-miterlimit="10" d="M23,64v218h411V64H23z M379,228.976
	c0,6.652-5.781,13.024-12.402,13.024H91.988C85.367,242,79,235.627,79,228.976V114.585C79,107.933,85.367,103,91.988,103h274.61
	c6.621,0,12.402,4.933,12.402,11.585V228.976z"/>
<path fill="#413E4A" d="M409.5,78.743c0,3.179-2.577,5.757-5.757,5.757H55.257c-3.179,0-5.757-2.578-5.757-5.757v-0.486
	c0-3.179,2.578-5.757,5.757-5.757h348.486c3.18,0,5.757,2.578,5.757,5.757V78.743z"/>
<circle fill="#413E4A" stroke="#413E4A" stroke-miterlimit="10" cx="100.75" cy="32.25" r="18.75"/>
<line fill="none" stroke="#413E4A" stroke-miterlimit="10" x1="83.939" y1="15.939" x2="86.061" y2="18.061"/>
<line fill="none" stroke="#413E4A" stroke-miterlimit="10" x1="122.5" y1="32" x2="128.5" y2="32"/>
<line fill="none" stroke="#413E4A" stroke-miterlimit="10" x1="101" y1="59.5" x2="101" y2="53.5"/>
<line fill="none" stroke="#413E4A" stroke-miterlimit="10" x1="73.5" y1="32" x2="79.5" y2="32"/>
<line fill="none" stroke="#413E4A" stroke-miterlimit="10" x1="101" y1="10.5" x2="101" y2="4.5"/>
<line fill="none" stroke="#413E4A" stroke-miterlimit="10" x1="115.939" y1="45.939" x2="118.061" y2="48.061"/>
<line fill="none" stroke="#413E4A" stroke-miterlimit="10" x1="115.939" y1="18.061" x2="118.061" y2="15.939"/>
<line fill="none" stroke="#413E4A" stroke-miterlimit="10" x1="83.939" y1="48.061" x2="86.061" y2="45.939"/>
<circle fill="#6A6770" stroke="#413E4A" stroke-miterlimit="10" cx="90.469" cy="36.22" r="3.719"/>
<circle fill="#413E4A" cx="351.75" cy="32.25" r="18.75"/>
<line fill="none" stroke="#413E4A" stroke-miterlimit="10" x1="334.939" y1="15.939" x2="337.061" y2="18.061"/>
<line fill="none" stroke="#413E4A" stroke-miterlimit="10" x1="373.5" y1="32" x2="379.5" y2="32"/>
<line fill="none" stroke="#413E4A" stroke-miterlimit="10" x1="352" y1="59.5" x2="352" y2="53.5"/>
<line fill="none" stroke="#413E4A" stroke-miterlimit="10" x1="324.5" y1="32" x2="330.5" y2="32"/>
<line fill="none" stroke="#413E4A" stroke-miterlimit="10" x1="352" y1="10.5" x2="352" y2="4.5"/>
<line fill="none" stroke="#413E4A" stroke-miterlimit="10" x1="366.939" y1="45.939" x2="369.061" y2="48.061"/>
<line fill="none" stroke="#413E4A" stroke-miterlimit="10" x1="366.939" y1="18.061" x2="369.061" y2="15.939"/>
<line fill="none" stroke="#413E4A" stroke-miterlimit="10" x1="334.939" y1="48.061" x2="337.061" y2="45.939"/>
<circle fill="#6A6770" stroke="#413E4A" stroke-miterlimit="10" cx="363.47" cy="32.22" r="3.72"/>
<path fill="#413E4A" d="M294.5,44.5c0,6.627-5.373,12-12,12h-110c-6.627,0-12-5.373-12-12v-18c0-6.627,5.373-12,12-12h110
	c6.627,0,12,5.373,12,12V44.5z"/>
<path fill="#413E4A" d="M45.5,314.5c0,6.075-4.925,11-11,11h-21c-6.075,0-11-4.925-11-11l0,0c0-6.075,4.925-11,11-11h21
	C40.575,303.5,45.5,308.425,45.5,314.5L45.5,314.5z"/>
<path fill="#413E4A" d="M455.5,313.5c0,6.075-4.925,11-11,11h-21c-6.075,0-11-4.925-11-11l0,0c0-6.075,4.925-11,11-11h21
	C450.575,302.5,455.5,307.425,455.5,313.5L455.5,313.5z"/>
<rect x="171.5" y="41.5" fill="#00C853" width="9" height="8"/>
<rect x="181.5" y="41.5" fill="#00C853" width="9" height="8"/>
<g>
	<g>
		<polygon fill="#00C853" points="197.75,22.5 193.75,22.5 192.25,20.5 199.25,20.5 		"/>
		<polygon fill="#00C853" points="193.5,22.25 193.5,26.25 192.541,26.959 191.5,26.25 191.5,20.75 		"/>
		<polygon fill="#00C853" points="193.5,31.75 193.5,27.75 192.541,27.041 191.5,27.75 191.5,33.25 		"/>
		<polygon fill="#00C853" points="193.75,31.5 197.75,31.5 199.25,33.5 192.25,33.5 		"/>
		<polygon fill="#00C853" points="198.5,27 197.75,26.5 193.75,26.5 193,27 193.75,27.5 197.75,27.5 		"/>
		<polygon fill="#00C853" points="201.5,22.25 201.5,26.25 201.041,26.959 200.5,26.25 200.5,20.75 		"/>
		<polygon fill="#00C853" points="201.5,31.75 201.5,27.75 201.041,27.041 200.5,27.75 200.5,33.25 		"/>
		<polygon fill="#00C853" points="206.5,22.25 206.5,26.25 207.459,26.959 208.5,26.25 208.5,20.75 		"/>
		<polygon fill="#00C853" points="206.5,31.75 206.5,27.75 207.459,27.041 208.5,27.75 208.5,33.25 		"/>
		<polygon fill="#00C853" points="202.273,22.56 202.25,23.449 205.141,26.076 206.288,26.045 206.312,25.154 203.421,22.528 		"/>
		<polygon fill="#00C853" points="218.75,22.5 214.75,22.5 213.25,20.5 220.25,20.5 		"/>
		<polygon fill="#00C853" points="214.5,22.25 214.5,26.25 213.541,26.959 212.5,26.25 212.5,20.75 		"/>
		<polygon fill="#00C853" points="214.5,31.75 214.5,27.75 213.541,27.041 212.5,27.75 212.5,33.25 		"/>
		<polygon fill="#00C853" points="214.75,31.5 218.75,31.5 220.25,33.5 213.25,33.5 		"/>
		<polygon fill="#00C853" points="227.25,22.5 223.25,22.5 221.75,20.5 228.75,20.5 		"/>
		<polygon fill="#00C853" points="222.5,22.25 222.5,26.25 222.041,26.959 221.5,26.25 221.5,20.75 		"/>
		<polygon fill="#00C853" points="222.5,31.75 222.5,27.75 222.041,27.041 221.5,27.75 221.5,33.25 		"/>
		<polygon fill="#00C853" points="227.5,22.25 227.5,26.25 228.459,26.959 229.5,26.25 229.5,20.75 		"/>
		<polygon fill="#00C853" points="223.25,31.5 227.25,31.5 228.75,33.5 221.75,33.5 		"/>
		<polygon fill="#00C853" points="227.5,31.75 227.5,27.75 228.459,27.041 229.5,27.75 229.5,33.25 		"/>
		<polygon fill="#00C853" points="231.5,22.25 231.5,26.25 231.041,26.959 230.5,26.25 230.5,20.75 		"/>
		<polygon fill="#00C853" points="231.5,31.75 231.5,27.75 231.041,27.041 230.5,27.75 230.5,33.25 		"/>
		<polygon fill="#00C853" points="236.5,22.25 236.5,26.25 237.459,26.959 238.5,26.25 238.5,20.75 		"/>
		<polygon fill="#00C853" points="232.25,31.5 236.25,31.5 237.75,33.5 230.75,33.5 		"/>
		<polygon fill="#00C853" points="236.5,31.75 236.5,27.75 237.459,27.041 238.5,27.75 238.5,33.25 		"/>
		<polygon fill="#00C853" points="245.25,22.5 241.25,22.5 239.75,20.5 246.75,20.5 		"/>
		<polygon fill="#00C853" points="240.5,22.25 240.5,26.25 240.041,26.959 239.5,26.25 239.5,20.75 		"/>
		<polygon fill="#00C853" points="240.5,31.75 240.5,27.75 240.041,27.041 239.5,27.75 239.5,33.25 		"/>
		<polygon fill="#00C853" points="245.5,22.25 245.5,26.25 246.459,26.959 247.5,26.25 247.5,20.75 		"/>
		<polygon fill="#00C853" points="246,27 245.25,26.5 241.25,26.5 240.5,27 241.25,27.5 245.25,27.5 		"/>
		<polygon fill="#00C853" points="241.273,28.06 241.25,28.949 244.141,31.576 245.288,31.545 245.312,30.654 242.421,28.028 		"/>
		<polygon fill="#00C853" points="254.25,22.5 250.25,22.5 248.75,20.5 255.75,20.5 		"/>
		<polygon fill="#00C853" points="249.5,22.25 249.5,26.25 249.041,26.959 248.5,26.25 248.5,20.75 		"/>
		<polygon fill="#00C853" points="250.25,31.5 254.25,31.5 255.75,33.5 248.75,33.5 		"/>
		<polygon fill="#00C853" points="254.5,31.75 254.5,27.75 255.459,27.041 256.5,27.75 256.5,33.25 		"/>
		<polygon fill="#00C853" points="255,27 254.25,26.5 250.25,26.5 249.5,27 250.25,27.5 254.25,27.5 		"/>
	</g>
	<rect x="258.5" y="31.5" fill="#00C853" width="2" height="2"/>
	<rect x="264.5" y="31.5" fill="#00C853" width="2" height="2"/>
	<rect x="261.5" y="31.5" fill="#00C853" width="2" height="2"/>
</g>
</svg>
