<?xml version="1.0" encoding="utf-8"?>
<!-- Generator: Adobe Illustrator 16.0.0, SVG Export Plug-In . SVG Version: 6.00 Build 0)  -->
<!DOCTYPE svg PUBLIC "-//W3C//DTD SVG 1.1//EN" "http://www.w3.org/Graphics/SVG/1.1/DTD/svg11.dtd">
<svg version="1.1" id="Calque_1" xmlns="http://www.w3.org/2000/svg" xmlns:xlink="http://www.w3.org/1999/xlink" x="0px" y="0px"
	 width="461px" height="344px" viewBox="0 0 461 344" enable-background="new 0 0 461 344" xml:space="preserve">
<path fill="#6A6770" stroke="#413E4A" stroke-width="3" stroke-miterlimit="10" d="M432,276.255c0,6.49-5.448,11.745-12.033,11.745
	H43.37C36.784,288,30,282.745,30,276.255V78.366C30,71.874,36.784,67,43.37,67h376.599c6.584,0,12.032,4.874,12.032,11.366
	L432,276.255L432,276.255z"/>
<path fill="#5B5862" d="M43.833,286.334c0,0,36.988-52.093,55.457-61.412c58.021-29.279,205.07-29.978,263.819,0
	c18.831,9.608,58.135,61.412,58.135,61.412H43.833z"/>
<g>
	<g>
		<path fill="#F7E4BE" d="M269.382,142.328c3.816,8.108,8.353,15.963,11.291,24.377c5.211,14.924-1.944,27.952-17.38,31.142
			c-21.708,4.482-43.809,4.234-65.496,0.451c-20.213-3.529-25.881-25.638-11.945-42.955c2.867-3.563,8.061-5.88,6.439-11.972
			c-0.115-0.426,1.478-1.787,2.402-1.938c12.247-1.998,24.494-5.115,36.786-5.323c8.64-0.146,17.345,3.731,26.028,5.774
			c3.343,0.788,6.71,1.472,10.065,2.204C268.176,143.499,268.779,142.914,269.382,142.328z M266.998,187.738
			c6.821-4.186,7.608-10.394,6.894-17.083c-0.124-1.146-1.326-3.078-2.106-3.118c-10.408-0.53-14.577-9.883-22.491-14.485
			c1.811-1.935,2.953-3.152,4.209-4.494c-12.406-5.871-24.629-6.948-35.331-3.658c-2.775,10.402-12.936,11.11-19.055,17.042
			c-1.646-2.043-2.877-3.571-4.105-5.094c-9.132,7.776-11.236,17.803-6.646,24.63c9.168-1.336,15.653,3.281,22.782,5.642
			c-0.696,2.141-1.161,3.566-1.874,5.764c10.102,0,19.59,0.199,29.056-0.164c1.976-0.076,5.282-1.971,5.562-3.479
			c1.314-7.029,7.403-5.8,11.715-7.796C262.188,178.4,264.515,182.966,266.998,187.738z"/>
		<path fill="#F7E4BE" d="M237.225,222.118c0.003,3.012-0.205,6.045,0.048,9.037c0.44,5.203-0.613,8.236-6.974,8.104
			c-5.828-0.123-7.82-2.24-7.522-7.879c0.344-6.479,0.329-12.996,0.022-19.473c-0.295-6.23,3.522-6.373,8.074-6.586
			c4.791-0.225,6.842,1.441,6.408,6.367C236.979,215.138,237.224,218.638,237.225,222.118z"/>
		<path fill="#F7E4BE" d="M255.775,205.962c-0.637,9.193-0.765,18.459-2.09,27.551c-0.837,5.744-6.076,4.133-11.164,4.086
			c0-9.863-0.642-19.561,0.518-29.041c0.244-1.992,7.102-3.18,10.912-4.734C254.559,204.534,255.167,205.247,255.775,205.962z"/>
		<path fill="#F7E4BE" d="M218.088,222.147c0,3.459,0.336,6.967-0.135,10.361c-0.256,1.842-2.287,5.102-2.825,4.969
			c-2.792-0.701-7.353-1.924-7.665-3.631c-1.525-8.334-2.114-16.869-2.383-25.354c-0.033-1.02,3.818-2.838,6.004-3.084
			c2.99-0.334,6.913-0.744,6.955,4.281c0.035,4.15,0.008,8.303,0.008,12.457C218.061,222.147,218.074,222.147,218.088,222.147z"/>
		<path fill="#F7E4BE" d="M186.305,200.19c3.657,1.201,7.375,2.256,10.935,3.697c1.026,0.416,1.714,1.879,2.342,2.982
			c0.306,0.539,0.099,1.357,0.152,2.049c0.618,7.988,1.244,15.979,2.017,25.893c-16.309-7.477-10.688-23.154-17.145-33.049
			C185.172,201.237,185.738,200.712,186.305,200.19z"/>
		<path fill="#F7E4BE" d="M258.489,233.638c1.036-9.461,0.96-18.414,3.416-26.604c1.027-3.418,7.443-5.217,11.952-8.1
			C275.915,212.778,268.152,231.046,258.489,233.638z"/>
		<path fill="#F7E4BE" d="M243.327,160.977c-0.246,2.251-0.277,3.419-0.51,4.545c-2.047,9.865-2.144,9.968-12.185,8.41
			c-4.264-0.662-8.484-1.59-13.695-2.581c2.295-5.777,4.273-10.762,6.501-16.374C230.327,157.055,236.64,158.958,243.327,160.977z"
			/>
	</g>
	<g>
		<path fill="#5B5862" d="M449.5,0h-437C5.87,0,0,5.19,0,12.66v293.3C0,313.44,5.87,320,12.5,320h437c6.63,0,11.5-6.56,11.5-14.04
			V12.66C461,5.19,456.13,0,449.5,0z M387.71,5.44c13.58,0,24.58,11.01,24.58,24.589c0,13.58-11,24.591-24.58,24.591
			c-13.59,0-24.59-11.011-24.59-24.591C363.12,16.45,374.12,5.44,387.71,5.44z M74.71,5.44c13.58,0,24.58,11.01,24.58,24.589
			c0,13.58-11,24.591-24.58,24.591c-13.59,0-24.601-11.011-24.601-24.591C50.109,16.45,61.12,5.44,74.71,5.44z M432,276
			c0,6.63-5.37,12-12,12H42c-6.63,0-12-5.37-12-12V79c0-6.63,5.37-12,12-12h378c6.63,0,12,5.37,12,12V276z"/>
		<path fill="#413E4A" d="M50,334.573c0,5.206-4.221,9.427-9.426,9.427H18.426C13.221,344,9,339.779,9,334.573v-0.146
			c0-5.206,4.221-9.427,9.426-9.427h22.148c5.205,0,9.426,4.221,9.426,9.427V334.573z"/>
		<path fill="#413E4A" d="M453,334.573c0,5.206-4.22,9.427-9.426,9.427h-22.148c-5.206,0-9.426-4.221-9.426-9.427v-0.146
			c0-5.206,4.22-9.427,9.426-9.427h22.148c5.206,0,9.426,4.221,9.426,9.427V334.573z"/>
		<path fill="none" stroke="#413E4A" stroke-miterlimit="10" d="M91.426,216.193c0,0,72.885-40.963,151.574-12.129
			c79.229,29.033,131.115-15.076,131.115-15.076"/>
		<path fill="none" stroke="#413E4A" stroke-miterlimit="10" d="M91.426,156.193c0,0,72.885-40.963,151.574-12.128
			c79.229,29.033,131.115-15.077,131.115-15.077"/>
		<path fill="#413E4A" d="M363,82.123c0,4.074-3.674,7.877-7.739,7.877H106.467C102.4,90,99,86.197,99,82.123v-0.246
			c0-4.074,3.4-6.877,7.467-6.877h248.795c4.064,0,7.738,2.803,7.738,6.877V82.123L363,82.123z"/>
	</g>
	<path fill="#413E4A" d="M387.787,4.135c14.373,0,26.016,11.653,26.016,26.025c0,14.372-11.643,26.027-26.016,26.027
		c-14.383,0-26.037-11.655-26.037-26.027C361.75,15.788,373.404,4.135,387.787,4.135z"/>
	<path fill="#413E4A" d="M74.787,4.135c14.373,0,26.016,11.653,26.016,26.025c0,14.372-11.643,26.027-26.016,26.027
		c-14.383,0-26.037-11.655-26.037-26.027C48.75,15.788,60.404,4.135,74.787,4.135z"/>
</g>
</svg>
